<svg xmlns="http://www.w3.org/2000/svg" viewBox="0 0 450 150" width="450" height="150">
  <path d="M 356 109 355 110 353 110 352 111 351 111 350 112 349 112 348 113 347 113 340 120 340 121 339 122 339 123 338 124 338 126 337 127 337 137 338 138 338 139 339 140 339 141 343 145 344 145 345 146 346 146 347 147 357 147 358 146 360 146 361 145 362 145 363 144 364 144 367 141 368 141 370 139 370 138 372 136 372 135 373 134 373 133 374 132 374 131 375 130 375 119 374 118 374 117 373 116 373 115 369 111 368 111 367 110 365 110 364 109 Z" fill="red" stroke="black" stroke-width="1"/>
  <path d="M 172 109 171 110 169 110 168 111 166 111 165 112 164 112 161 115 160 115 158 117 158 118 155 121 155 122 154 123 154 124 153 125 153 129 152 130 152 134 153 135 153 138 154 139 154 140 155 141 155 142 157 144 158 144 160 146 162 146 163 147 172 147 173 146 175 146 176 145 178 145 180 143 181 143 188 136 188 135 189 134 189 133 190 132 190 129 191 128 191 120 190 119 190 117 188 115 188 114 186 112 185 112 184 111 183 111 182 110 181 110 180 109 Z" fill="red" stroke="black" stroke-width="1"/>
  <path d="M 48 68 47 69 46 69 44 71 44 78 45 79 45 80 46 81 47 81 48 82 66 82 67 81 68 81 70 79 70 78 71 77 71 73 70 72 70 71 67 68 Z" fill="red" stroke="black" stroke-width="1"/>
  <path d="M 336 29 335 30 335 31 334 32 334 36 333 37 333 41 332 42 332 45 331 46 331 50 330 51 330 55 329 56 329 60 328 61 328 64 327 65 327 69 326 70 326 74 325 75 325 79 324 80 324 83 323 84 323 88 322 89 322 93 321 94 321 97 320 98 320 102 319 103 319 107 318 108 318 112 317 113 317 116 316 117 316 123 318 125 335 125 336 124 336 122 337 121 337 120 339 118 339 117 346 110 347 110 349 108 350 108 351 107 352 107 353 106 355 106 356 105 366 105 367 106 369 106 371 108 372 108 376 112 376 113 377 114 377 115 378 116 378 118 379 119 379 125 389 125 390 124 391 124 392 123 393 123 397 119 397 117 398 116 398 113 399 112 399 109 400 108 400 104 401 103 401 99 402 98 402 94 403 93 403 90 404 89 404 85 405 84 405 75 404 74 404 73 397 66 397 65 395 63 395 62 394 61 394 60 392 58 392 57 391 56 391 55 389 53 389 52 388 51 388 50 386 48 386 47 385 46 385 45 383 43 383 42 382 41 382 40 380 38 380 37 378 35 378 34 377 33 377 32 375 30 374 30 373 29 Z" fill="red" stroke="black" stroke-width="1"/>
  <path d="M 59 10 58 11 57 11 56 12 55 12 55 13 54 14 54 16 53 17 53 18 54 19 54 21 57 24 77 24 78 23 79 23 79 22 80 21 80 20 81 19 81 15 80 14 80 13 78 11 76 11 75 10 Z" fill="red" stroke="black" stroke-width="1"/>
  <path d="M 160 2 159 3 157 3 156 4 155 4 153 6 153 7 152 8 152 9 151 10 97 10 96 11 95 11 92 14 92 20 93 21 93 22 94 23 95 23 96 24 164 24 165 25 167 25 170 28 170 29 171 30 171 33 170 34 170 35 166 39 72 39 71 40 70 40 68 42 68 44 67 45 67 47 68 48 68 50 70 52 71 52 72 53 159 53 160 54 161 54 164 57 164 58 165 59 165 62 164 63 164 64 161 67 160 67 159 68 96 68 95 69 94 69 93 70 93 71 92 72 92 78 95 81 96 81 97 82 153 82 154 83 155 83 158 86 158 87 159 88 159 90 158 91 158 93 156 95 155 95 154 96 152 96 151 97 54 97 51 100 51 101 50 102 50 106 51 107 51 108 53 110 55 110 56 111 129 111 130 112 130 113 129 114 129 117 128 118 128 123 129 124 129 125 131 127 150 127 150 126 151 125 151 124 152 123 152 121 154 119 154 118 163 109 164 109 165 108 166 108 167 107 168 107 169 106 171 106 172 105 181 105 182 106 184 106 185 107 186 107 193 114 193 116 194 117 194 126 195 127 306 127 307 126 308 126 312 122 312 120 313 119 313 115 314 114 314 111 315 110 315 106 316 105 316 101 317 100 317 97 318 96 318 92 319 91 319 87 320 86 320 82 321 81 321 78 322 77 322 73 323 72 323 68 324 67 324 63 325 62 325 59 326 58 326 54 327 53 327 49 328 48 328 44 329 43 329 40 330 39 330 35 331 34 331 30 332 29 332 26 333 25 333 21 334 20 334 16 335 15 335 12 336 11 336 7 335 6 335 5 333 3 332 3 331 2 Z" fill="red" stroke="black" stroke-width="1"/>
</svg>